<svg width="22" height="22" viewBox="0 0 22 22" fill="none" xmlns="http://www.w3.org/2000/svg">
<path d="M21.8038 6.42797C21.7526 5.26627 21.5648 4.46761 21.2956 3.77556C21.018 3.04097 20.5909 2.38329 20.0313 1.83656C19.4846 1.28132 18.8226 0.849877 18.0965 0.576595C17.4005 0.307484 16.606 0.119623 15.4443 0.0684039C14.2739 0.0128466 13.9023 0 10.934 0C7.96556 0 7.59401 0.0128466 6.42797 0.0640661C5.26627 0.115286 4.46761 0.303313 3.77573 0.572257C3.04097 0.849877 2.38329 1.27698 1.83656 1.83656C1.28132 2.38329 0.850044 3.04531 0.576595 3.77139C0.307484 4.46761 0.119623 5.26193 0.0684039 6.42363C0.0128466 7.59401 0 7.96556 0 10.934C0 13.9023 0.0128466 14.2739 0.0640661 15.4399C0.115286 16.6016 0.303313 17.4003 0.572424 18.0923C0.850044 18.8269 1.28132 19.4846 1.83656 20.0313C2.38329 20.5866 3.04531 21.018 3.77139 21.2913C4.46761 21.5604 5.26193 21.7483 6.4238 21.7995C7.58967 21.8509 7.96138 21.8636 10.9298 21.8636C13.8982 21.8636 14.2697 21.8509 15.4358 21.7995C16.5975 21.7483 17.3961 21.5604 18.088 21.2913C19.5574 20.7232 20.7191 19.5615 21.2871 18.0923C21.5561 17.3961 21.7441 16.6016 21.7953 15.4399C21.8465 14.2739 21.8594 13.9023 21.8594 10.934C21.8594 7.96556 21.8551 7.59401 21.8038 6.42797ZM19.835 15.3545C19.7879 16.4223 19.6086 16.9989 19.4591 17.3833C19.0917 18.3358 18.3358 19.0917 17.3833 19.4591C16.9989 19.6086 16.4181 19.7879 15.3545 19.8348C14.2013 19.8862 13.8555 19.8989 10.9383 19.8989C8.02111 19.8989 7.67092 19.8862 6.5219 19.8348C5.45413 19.7879 4.87753 19.6086 4.49314 19.4591C4.01915 19.2839 3.5877 19.0063 3.23751 18.6432C2.87447 18.2887 2.59685 17.8616 2.42167 17.3876C2.27218 17.0032 2.09283 16.4223 2.04595 15.3589C1.99456 14.2057 1.98188 13.8596 1.98188 10.9425C1.98188 8.02528 1.99456 7.67509 2.04595 6.52624C2.09283 5.45847 2.27218 4.88187 2.42167 4.49748C2.59685 4.02332 2.87447 3.59204 3.24185 3.24168C3.59621 2.87864 4.02332 2.60102 4.49748 2.426C4.88187 2.27652 5.46281 2.09716 6.52624 2.05012C7.67943 1.9989 8.02545 1.98605 10.9425 1.98605C13.864 1.98605 14.2098 1.9989 15.3589 2.05012C16.4266 2.09716 17.0032 2.27652 17.3876 2.426C17.8616 2.60102 18.293 2.87864 18.6432 3.24168C19.0063 3.59621 19.2839 4.02332 19.4591 4.49748C19.6086 4.88187 19.7879 5.46264 19.835 6.52624C19.8862 7.67943 19.899 8.02528 19.899 10.9425C19.899 13.8596 19.8862 14.2013 19.835 15.3545Z" fill="white"/>
<path d="M10.934 5.3175C7.83333 5.3175 5.31757 7.8331 5.31757 10.934C5.31757 14.0348 7.83333 16.5504 10.934 16.5504C14.0349 16.5504 16.5505 14.0348 16.5505 10.934C16.5505 7.8331 14.0349 5.3175 10.934 5.3175ZM10.934 14.5772C8.92245 14.5772 7.29077 12.9457 7.29077 10.934C7.29077 8.92223 8.92245 7.29071 10.934 7.29071C12.9458 7.29071 14.5773 8.92223 14.5773 10.934C14.5773 12.9457 12.9458 14.5772 10.934 14.5772Z" fill="white"/>
<path d="M18.0839 5.09549C18.0839 5.81957 17.4968 6.40668 16.7725 6.40668C16.0484 6.40668 15.4613 5.81957 15.4613 5.09549C15.4613 4.37124 16.0484 3.7843 16.7725 3.7843C17.4968 3.7843 18.0839 4.37124 18.0839 5.09549Z" fill="white"/>
</svg>
