<svg width="22" height="22" viewBox="0 0 22 22" fill="none" xmlns="http://www.w3.org/2000/svg">
<path d="M21.901 21.9065V21.9055H21.9065V13.8714C21.9065 9.94098 21.0604 6.91333 16.4655 6.91333C14.2566 6.91333 12.7743 8.12549 12.1691 9.27466H12.1052V7.28026H7.74857V21.9055H12.285V14.6636C12.285 12.7569 12.6465 10.9131 15.0078 10.9131C17.3344 10.9131 17.3691 13.0891 17.3691 14.786V21.9065H21.901Z" fill="white"/>
<path d="M0.361511 7.28113H4.90344V21.9064H0.361511V7.28113Z" fill="white"/>
<path d="M2.6306 0C1.17838 0 0 1.17838 0 2.6306C0 4.08281 1.17838 5.28584 2.6306 5.28584C4.08281 5.28584 5.26119 4.08281 5.26119 2.6306C5.26028 1.17838 4.0819 0 2.6306 0V0Z" fill="white"/>
</svg>
