<svg width="135" height="48" viewBox="0 0 135 48" fill="none" xmlns="http://www.w3.org/2000/svg">
<path d="M2.5 12C10.5057 12 23 12 23 12L32 35.5L40.5 12L48.5 35.5C48.5 35.5 54.29 21.1773 58 12M65.5 12V35.5M74.5 35.5C74.5 26.3227 74.5 12 74.5 12L90 34.5V12" stroke="white" stroke-width="5" stroke-linecap="round" stroke-linejoin="round"/>
<circle cx="32.5" cy="44.5" r="3.5" fill="white"/>
<circle cx="49.5" cy="44.5" r="3.5" fill="white"/>
<circle cx="65.5" cy="3.5" r="3.5" fill="white"/>
<path d="M102.104 24.4302C102.104 24.1766 102.043 23.9539 101.919 23.7622C101.795 23.5705 101.591 23.3849 101.307 23.2056C101.028 23.0262 100.651 22.8345 100.175 22.6304C99.7109 22.4386 99.2935 22.25 98.9224 22.0645C98.5575 21.8727 98.2482 21.6655 97.9946 21.4429C97.741 21.2202 97.5462 20.9635 97.4102 20.6729C97.2803 20.376 97.2153 20.0265 97.2153 19.6245C97.2153 19.2225 97.2896 18.8514 97.438 18.5112C97.5926 18.1649 97.8091 17.8618 98.0874 17.6021C98.3657 17.3423 98.6997 17.1413 99.0894 16.999C99.479 16.8506 99.915 16.7764 100.397 16.7764C101.084 16.7764 101.668 16.9093 102.151 17.1753C102.633 17.4412 103.001 17.8062 103.255 18.27C103.515 18.7277 103.645 19.2441 103.645 19.8193H102.012C102.012 19.541 101.95 19.2782 101.826 19.0308C101.702 18.7834 101.52 18.5824 101.279 18.4277C101.038 18.2669 100.744 18.1865 100.397 18.1865C100.033 18.1865 99.7357 18.2515 99.5068 18.3813C99.278 18.5112 99.111 18.6813 99.0059 18.8916C98.9069 19.0957 98.8574 19.3215 98.8574 19.5688C98.8574 19.7544 98.8822 19.9152 98.9316 20.0513C98.9873 20.1812 99.0801 20.3049 99.21 20.4224C99.3398 20.5337 99.5161 20.6512 99.7388 20.7749C99.9676 20.8924 100.258 21.0285 100.611 21.1831C101.291 21.4491 101.863 21.7181 102.327 21.9902C102.791 22.2624 103.144 22.5809 103.385 22.9458C103.626 23.3107 103.747 23.7622 103.747 24.3003C103.747 24.7394 103.666 25.1383 103.505 25.4971C103.351 25.8496 103.128 26.1527 102.837 26.4062C102.547 26.6598 102.197 26.8547 101.789 26.9907C101.387 27.1206 100.936 27.1855 100.435 27.1855C99.68 27.1855 99.0399 27.0371 98.5142 26.7402C97.9946 26.4372 97.5988 26.0444 97.3267 25.562C97.0607 25.0734 96.9277 24.5508 96.9277 23.9941H98.5698C98.5884 24.4642 98.6935 24.8291 98.8853 25.0889C99.0832 25.3486 99.3213 25.528 99.5996 25.627C99.8779 25.7259 100.156 25.7754 100.435 25.7754C100.799 25.7754 101.106 25.7228 101.353 25.6177C101.6 25.5063 101.786 25.3486 101.91 25.1445C102.04 24.9404 102.104 24.7023 102.104 24.4302ZM109.563 16.9619V18.2793H104.878V16.9619H109.563ZM106.409 14.522H108.051V24.5137C108.051 24.8538 108.091 25.1105 108.172 25.2837C108.258 25.4569 108.367 25.5713 108.497 25.627C108.626 25.6826 108.766 25.7104 108.914 25.7104C109.025 25.7104 109.149 25.6981 109.285 25.6733C109.421 25.6424 109.514 25.6177 109.563 25.5991L109.554 27C109.443 27.0433 109.294 27.0835 109.109 27.1206C108.923 27.1639 108.688 27.1855 108.404 27.1855C108.051 27.1855 107.723 27.1021 107.42 26.9351C107.117 26.7681 106.873 26.4897 106.688 26.1001C106.502 25.7043 106.409 25.1724 106.409 24.5044V14.522ZM110.992 22.4634V21.5078C110.992 20.7285 111.091 20.0451 111.289 19.4575C111.487 18.8638 111.762 18.369 112.115 17.9731C112.467 17.5773 112.879 17.2804 113.349 17.0825C113.819 16.8784 114.323 16.7764 114.861 16.7764C115.411 16.7764 115.922 16.8784 116.392 17.0825C116.862 17.2804 117.273 17.5773 117.625 17.9731C117.984 18.369 118.263 18.8638 118.46 19.4575C118.658 20.0451 118.757 20.7285 118.757 21.5078V22.4634C118.757 23.2427 118.658 23.9292 118.46 24.5229C118.263 25.1105 117.987 25.6022 117.635 25.998C117.282 26.3939 116.871 26.6908 116.401 26.8887C115.931 27.0866 115.424 27.1855 114.879 27.1855C114.335 27.1855 113.828 27.0866 113.358 26.8887C112.888 26.6908 112.473 26.3939 112.115 25.998C111.762 25.6022 111.487 25.1105 111.289 24.5229C111.091 23.9292 110.992 23.2427 110.992 22.4634ZM112.634 21.5078V22.4634C112.634 23.0138 112.69 23.4963 112.801 23.9106C112.913 24.325 113.07 24.6714 113.274 24.9497C113.479 25.228 113.717 25.4383 113.989 25.5806C114.261 25.7166 114.558 25.7847 114.879 25.7847C115.25 25.7847 115.575 25.7166 115.854 25.5806C116.138 25.4383 116.373 25.228 116.559 24.9497C116.744 24.6714 116.883 24.325 116.976 23.9106C117.069 23.4963 117.115 23.0138 117.115 22.4634V21.5078C117.115 20.9574 117.06 20.478 116.948 20.0698C116.837 19.6554 116.679 19.3091 116.475 19.0308C116.271 18.7463 116.03 18.536 115.751 18.3999C115.479 18.2576 115.182 18.1865 114.861 18.1865C114.545 18.1865 114.252 18.2576 113.979 18.3999C113.707 18.536 113.469 18.7463 113.265 19.0308C113.067 19.3091 112.913 19.6554 112.801 20.0698C112.69 20.478 112.634 20.9574 112.634 21.5078ZM122.515 18.5391V27H120.873V16.9619H122.459L122.515 18.5391ZM125.01 16.9062L125.02 18.502C124.883 18.471 124.76 18.4525 124.648 18.4463C124.543 18.4339 124.42 18.4277 124.277 18.4277C123.968 18.4277 123.696 18.4896 123.461 18.6133C123.232 18.737 123.034 18.9102 122.867 19.1328C122.7 19.3555 122.567 19.6214 122.468 19.9307C122.369 20.2337 122.301 20.5677 122.264 20.9326L121.837 21.2109C121.837 20.6048 121.884 20.0358 121.977 19.5039C122.076 18.972 122.227 18.502 122.431 18.0938C122.635 17.6794 122.895 17.3577 123.21 17.1289C123.532 16.8939 123.916 16.7764 124.361 16.7764C124.46 16.7764 124.58 16.7918 124.723 16.8228C124.871 16.8475 124.967 16.8753 125.01 16.9062ZM130.066 27.1855C129.466 27.1855 128.925 27.0959 128.443 26.9165C127.96 26.7371 127.549 26.465 127.209 26.1001C126.869 25.729 126.609 25.262 126.43 24.6992C126.25 24.1364 126.161 23.4715 126.161 22.7046V21.5728C126.161 20.6883 126.263 19.9399 126.467 19.3276C126.677 18.7153 126.958 18.2236 127.311 17.8525C127.664 17.4753 128.062 17.2031 128.508 17.0361C128.953 16.863 129.411 16.7764 129.881 16.7764C130.512 16.7764 131.05 16.8784 131.495 17.0825C131.94 17.2866 132.302 17.5897 132.581 17.9917C132.859 18.3937 133.063 18.8885 133.193 19.4761C133.329 20.0636 133.397 20.7409 133.397 21.5078V22.4634H127.125V21.0625H131.755V20.8306C131.73 20.311 131.659 19.8534 131.542 19.4575C131.43 19.0617 131.245 18.7524 130.985 18.5298C130.725 18.3009 130.357 18.1865 129.881 18.1865C129.578 18.1865 129.296 18.2391 129.037 18.3442C128.783 18.4432 128.563 18.6195 128.378 18.873C128.199 19.1204 128.056 19.4637 127.951 19.9028C127.852 20.342 127.803 20.8986 127.803 21.5728V22.7046C127.803 23.2427 127.852 23.7065 127.951 24.0962C128.056 24.4797 128.208 24.7982 128.406 25.0518C128.61 25.2992 128.857 25.4847 129.148 25.6084C129.445 25.7259 129.782 25.7847 130.159 25.7847C130.71 25.7847 131.164 25.6795 131.523 25.4692C131.882 25.2528 132.194 24.9775 132.46 24.6436L133.323 25.6733C133.143 25.9269 132.908 26.1712 132.618 26.4062C132.333 26.6351 131.981 26.8237 131.56 26.9722C131.146 27.1144 130.648 27.1855 130.066 27.1855Z" fill="white"/>
</svg>
